<?xml version="1.0" encoding="UTF-8"?>
<svg id="Layer_1" data-name="Layer 1" xmlns="http://www.w3.org/2000/svg" viewBox="0 0 187.9 158.4">
  <defs>
    <style>
      .cls-1 {
        fill: #fff;
        stroke-width: 0px;
      }
    </style>
  </defs>
  <path class="cls-1" d="M89.69,130.65c-9.12-9.05-19.77-13.93-31.71-16.01-4.87-.85-9.84-1.15-14.78-1.48-4.61-.3-6.49-2.07-6.5-6.74-.01-25.91-.01-51.83,0-77.74,0-4.8,2.04-6.85,6.75-6.68,13.38.48,26.15,3.09,36.73,11.97,3.16,2.65,5.75,6.04,8.33,9.31.88,1.11,1.29,2.88,1.3,4.34.07,27.08.05,54.17.05,81.25,0,.38-.06.75-.15,1.77Z"/>
  <path class="cls-1" d="M98.08,130v-2.6c0-26.21-.05-52.41.09-78.62.01-2.26.85-4.84,2.12-6.7,7.83-11.43,19.42-16.67,32.6-18.95,3.92-.68,7.92-.92,11.9-1.11,4.22-.2,6.42,1.94,6.42,6.1.03,26.3.03,52.61,0,78.91,0,4.08-2.12,5.99-6.51,6.09-11.92.26-23.46,2.26-33.96,8.2-4.35,2.46-8.3,5.65-12.68,8.68Z"/>
  <path class="cls-1" d="M81.77,134.72c-4.93-.64-9.29-1.33-13.69-1.75-13.3-1.29-26.43.07-39.47,2.72-1.24.25-2.47.61-3.73.7-3.21.23-5.63-2.13-5.71-5.64-.09-4.09-.02-8.19-.02-12.28,0-23.3,0-46.59,0-69.89,0-6.89,1.88-8.55,9.3-7.78,0,1.09,0,2.22,0,3.35,0,20.57,0,41.13,0,61.7,0,10.04,5.15,15.2,15.19,15.56,12.87.46,25.1,3.08,35.61,11.12.75.57,1.42,1.24,2.52,2.19Z"/>
  <path class="cls-1" d="M106.04,134.82c4.88-4.53,10.03-7.33,15.62-9.37,7.29-2.65,14.87-3.83,22.6-4.04,10.03-.28,15.21-5.51,15.21-15.52.01-20.47,0-40.94,0-61.41,0-1.16,0-2.31,0-3.41,6.38-1.58,9.3.65,9.3,6.92,0,27,0,54,0,81.01,0,6.26-2.39,8.22-8.58,6.91-13.8-2.93-27.71-4.24-41.79-2.82-3.92.39-7.8,1.1-12.37,1.76Z"/>
</svg>