<?xml version="1.0" encoding="UTF-8"?>
<svg id="Layer_1" data-name="Layer 1" xmlns="http://www.w3.org/2000/svg" viewBox="0 0 529.6 158.4">
  <defs>
    <style>
      .cls-1 {
        stroke-width: 0px;
      }
    </style>
  </defs>
  <g>
    <path class="cls-1" d="M168.78,112.44V47.16h9.81v55.58h28.44v9.7h-38.24Z"/>
    <path class="cls-1" d="M229.47,59.05c-1.51,0-2.77-.48-3.77-1.45-1.01-.96-1.51-2.18-1.51-3.64s.5-2.63,1.51-3.61c1.01-.98,2.25-1.47,3.73-1.47s2.67.49,3.68,1.47c1.01.98,1.51,2.18,1.51,3.61s-.49,2.67-1.49,3.64c-.99.96-2.21,1.45-3.65,1.45ZM224.47,65.82h9.81v46.63h-9.81v-46.63Z"/>
    <path class="cls-1" d="M277.38,64.51c4.59,0,8.76,1.1,12.52,3.31,3.76,2.21,6.75,5.17,8.98,8.88,2.23,3.71,3.35,7.84,3.35,12.38,0,3.39-.64,6.57-1.93,9.54-1.29,2.97-3.07,5.58-5.35,7.83s-4.92,4.02-7.92,5.29c-3,1.27-6.22,1.91-9.64,1.91s-6.19-.75-8.65-2.26c-2.47-1.51-4.49-3.44-6.06-5.81v6.85h-9.81V42.5h9.81v30.07c1.57-2.39,3.59-4.34,6.06-5.83,2.47-1.49,5.35-2.24,8.65-2.24ZM277.29,104.24c2.74,0,5.23-.68,7.5-2.05,2.26-1.37,4.06-3.2,5.4-5.5,1.34-2.3,2-4.83,2-7.6s-.68-5.39-2.03-7.69c-1.35-2.3-3.16-4.13-5.42-5.48-2.26-1.35-4.75-2.03-7.45-2.03s-5.14.68-7.22,2.05c-2.07,1.37-3.69,3.2-4.86,5.5-1.16,2.3-1.75,4.85-1.75,7.65s.58,5.35,1.75,7.65c1.16,2.3,2.78,4.13,4.86,5.48,2.07,1.35,4.48,2.03,7.22,2.03Z"/>
    <path class="cls-1" d="M316.95,112.44v-46.63h9.81v4.94c1.63-1.93,3.65-3.45,6.04-4.57s4.97-1.68,7.73-1.68c1.76,0,3.51.23,5.23.7l-3.91,9.79c-1.23-.47-2.45-.7-3.68-.7-2.07,0-3.98.51-5.71,1.52-1.73,1.01-3.11,2.37-4.15,4.08-1.04,1.71-1.56,3.61-1.56,5.69v26.86h-9.81Z"/>
    <path class="cls-1" d="M392.68,65.82h9.81v46.63h-9.86l-.38-6.76c-1.38,2.39-3.25,4.32-5.61,5.78s-5.14,2.19-8.35,2.19c-3.46,0-6.71-.65-9.76-1.94-3.05-1.29-5.73-3.08-8.04-5.39-2.31-2.3-4.11-4.95-5.4-7.95-1.29-3-1.93-6.23-1.93-9.68s.63-6.46,1.89-9.4c1.26-2.94,3-5.51,5.23-7.72,2.23-2.21,4.82-3.94,7.76-5.2s6.09-1.89,9.45-1.89,6.45.77,9.08,2.31c2.62,1.54,4.8,3.51,6.53,5.9l-.42-6.9ZM378.06,104.28c2.77,0,5.19-.68,7.26-2.03,2.07-1.35,3.68-3.18,4.83-5.48,1.15-2.3,1.72-4.85,1.72-7.65s-.58-5.39-1.75-7.69c-1.16-2.3-2.77-4.13-4.83-5.48-2.06-1.35-4.47-2.03-7.24-2.03s-5.24.68-7.5,2.05c-2.26,1.37-4.05,3.2-5.38,5.5-1.32,2.3-1.98,4.85-1.98,7.65s.68,5.39,2.05,7.67c1.37,2.29,3.17,4.1,5.42,5.46,2.25,1.35,4.71,2.03,7.38,2.03Z"/>
    <path class="cls-1" d="M418.99,112.44v-46.63h9.81v4.94c1.63-1.93,3.65-3.45,6.04-4.57s4.97-1.68,7.73-1.68c1.76,0,3.51.23,5.23.7l-3.91,9.79c-1.23-.47-2.45-.7-3.68-.7-2.07,0-3.98.51-5.71,1.52-1.73,1.01-3.11,2.37-4.15,4.08-1.04,1.71-1.56,3.61-1.56,5.69v26.86h-9.81Z"/>
    <path class="cls-1" d="M492.64,65.82h10.47l-25.84,69.94h-10.42l8.54-23.31-16.93-46.63h10.71l11.13,33.34,12.35-33.34Z"/>
  </g>
  <g>
    <path class="cls-1" d="M88.89,112.43c-6.64-6.59-14.39-10.14-23.09-11.65-3.54-.62-7.17-.84-10.76-1.07-3.36-.22-4.73-1.5-4.73-4.91,0-18.87,0-37.73,0-56.6,0-3.49,1.49-4.99,4.91-4.86,9.74.35,19.04,2.25,26.74,8.72,2.3,1.93,4.18,4.4,6.06,6.78.64.81.94,2.09.94,3.16.05,19.72.04,39.43.04,59.15,0,.27-.05.55-.11,1.29Z"/>
    <path class="cls-1" d="M95,111.96v-1.89c0-19.08-.04-38.16.07-57.24,0-1.64.62-3.52,1.55-4.88,5.7-8.32,14.14-12.14,23.73-13.79,2.85-.49,5.77-.67,8.67-.81,3.07-.15,4.67,1.41,4.68,4.44.02,19.15.02,38.3,0,57.45,0,2.97-1.54,4.36-4.74,4.43-8.68.19-17.08,1.65-24.72,5.97-3.17,1.79-6.04,4.11-9.23,6.32Z"/>
    <path class="cls-1" d="M83.12,115.39c-3.59-.47-6.77-.97-9.97-1.28-9.68-.94-19.24.05-28.74,1.98-.9.18-1.8.44-2.71.51-2.33.17-4.1-1.55-4.16-4.1-.06-2.98-.02-5.96-.02-8.94,0-16.96,0-33.92,0-50.88,0-5.02,1.37-6.22,6.77-5.67,0,.79,0,1.62,0,2.44,0,14.97,0,29.95,0,44.92,0,7.31,3.75,11.07,11.06,11.33,9.37.33,18.27,2.24,25.93,8.1.54.42,1.04.9,1.83,1.6Z"/>
    <path class="cls-1" d="M100.79,115.46c3.55-3.3,7.3-5.34,11.37-6.82,5.31-1.93,10.82-2.79,16.45-2.94,7.3-.2,11.07-4.01,11.08-11.3,0-14.9,0-29.81,0-44.71,0-.84,0-1.68,0-2.48,4.64-1.15,6.77.48,6.77,5.04,0,19.66,0,39.32,0,58.97,0,4.56-1.74,5.99-6.25,5.03-10.05-2.13-20.17-3.08-30.42-2.06-2.85.29-5.68.8-9,1.28Z"/>
  </g>
</svg>